<svg xmlns="http://www.w3.org/2000/svg" xmlns:xlink="http://www.w3.org/1999/xlink" style="margin:auto;background:#89898900;display:block;z-index:1;position:relative" width="640" height="640" preserveAspectRatio="xMidYMid" viewBox="0 0 640 640">
  <g transform="translate(320,320) scale(1,1) translate(-320,-320)">
    <style type="text/css">
    @keyframes ld-speed-dash {
      0% { transform: translate(0,-1039.496679918781px); }
      100% { transform: translate(0,1039.496679918781px); }
    }
    .ld.ld-speed-dash {
      animation: ld-speed-dash 10s linear infinite;
    }
  </style>
    <g transform="translate(320,320)">
      <g style="transform:rotate(45deg)">
        <line x1="-190.66886194093357" x2="-190.66886194093357" y1="0" y2="-87.69708712784477" stroke="#689cc5" stroke-width="4.452166126748784" stroke-linecap="round" class="ld ld-speed-dash" style="animation-delay: -9.356368053271051s;animation-duration:10s"></line>
        <line x1="-133.59341483099604" x2="-133.59341483099604" y1="0" y2="-65.16953611094524" stroke="#93dbe9" stroke-width="1.2380048988369659" stroke-linecap="round" class="ld ld-speed-dash" style="animation-delay: -1.231170045874771s;animation-duration:10s"></line>
        <line x1="-254.45839158690143" x2="-254.45839158690143" y1="0" y2="-46.7250800387259" stroke="#93dbe9" stroke-width="3.0769948894603227" stroke-linecap="round" class="ld ld-speed-dash" style="animation-delay: -0.2732070332870973s;animation-duration:5s"></line>
        <line x1="-304.75870018454987" x2="-304.75870018454987" y1="0" y2="-102.2758939347465" stroke="#689cc5" stroke-width="2.952078380456016" stroke-linecap="round" class="ld ld-speed-dash" style="animation-delay: -9.916379949662852s;animation-duration:5s"></line>
        <line x1="-32.137247140567666" x2="-32.137247140567666" y1="0" y2="-61.226303708945935" stroke="#93dbe9" stroke-width="1.6122714177403434" stroke-linecap="round" class="ld ld-speed-dash" style="animation-delay: -4.242480144934436s;animation-duration:10s"></line>
        <line x1="-245.89040179210642" x2="-245.89040179210642" y1="0" y2="-81.41236727863311" stroke="#93dbe9" stroke-width="3.362749154087385" stroke-linecap="round" class="ld ld-speed-dash" style="animation-delay: -5.576324165172385s;animation-duration:5s"></line>
        <line x1="157.31954265310753" x2="157.31954265310753" y1="0" y2="-83.13148092706767" stroke="#689cc5" stroke-width="4.272117573021808" stroke-linecap="round" class="ld ld-speed-dash" style="animation-delay: -9.95191774315428s;animation-duration:10s"></line>
        <line x1="-293.26562121620975" x2="-293.26562121620975" y1="0" y2="-64.81438133017451" stroke="#93dbe9" stroke-width="4.896742489753124" stroke-linecap="round" class="ld ld-speed-dash" style="animation-delay: -7.282133259188777s;animation-duration:10s"></line>
        <line x1="-23.896551330420195" x2="-23.896551330420195" y1="0" y2="-41.50945803801517" stroke="#689cc5" stroke-width="4.14658964525818" stroke-linecap="round" class="ld ld-speed-dash" style="animation-delay: -6.61857752307288s;animation-duration:5s"></line>
        <line x1="283.07954522995954" x2="283.07954522995954" y1="0" y2="-92.4009130245887" stroke="#689cc5" stroke-width="3.017375022162285" stroke-linecap="round" class="ld ld-speed-dash" style="animation-delay: -4.003519416109715s;animation-duration:5s"></line>
        <line x1="10.740882267740233" x2="10.740882267740233" y1="0" y2="-52.167721478312934" stroke="#93dbe9" stroke-width="2.391477287923078" stroke-linecap="round" class="ld ld-speed-dash" style="animation-delay: -6.002728283384833s;animation-duration:10s"></line>
        <line x1="-247.94233279735045" x2="-247.94233279735045" y1="0" y2="-68.77030653966767" stroke="#689cc5" stroke-width="3.3637473180958506" stroke-linecap="round" class="ld ld-speed-dash" style="animation-delay: -4.821756311820795s;animation-duration:10s"></line>
        <line x1="36.066001463270965" x2="36.066001463270965" y1="0" y2="-78.92798331338653" stroke="#689cc5" stroke-width="3.9845107222805782" stroke-linecap="round" class="ld ld-speed-dash" style="animation-delay: -9.673434716660807s;animation-duration:5s"></line>
        <line x1="227.07741147930406" x2="227.07741147930406" y1="0" y2="-77.21390890931049" stroke="#689cc5" stroke-width="2.639014853012202" stroke-linecap="round" class="ld ld-speed-dash" style="animation-delay: -9.217522551818256s;animation-duration:5s"></line>
        <line x1="-128.80012834658464" x2="-128.80012834658464" y1="0" y2="-123.29058335720485" stroke="#689cc5" stroke-width="3.5869867291229345" stroke-linecap="round" class="ld ld-speed-dash" style="animation-delay: -6.751738701612264s;animation-duration:5s"></line>
        <line x1="-175.16722978127248" x2="-175.16722978127248" y1="0" y2="-70.53306785117378" stroke="#689cc5" stroke-width="0.40646672998114475" stroke-linecap="round" class="ld ld-speed-dash" style="animation-delay: -5.767218173444219s;animation-duration:5s"></line>
        <line x1="-136.65030714994984" x2="-136.65030714994984" y1="0" y2="-117.48360397195589" stroke="#93dbe9" stroke-width="0.9665149492636887" stroke-linecap="round" class="ld ld-speed-dash" style="animation-delay: -1.2400389880650609s;animation-duration:10s"></line>
        <line x1="279.841726344349" x2="279.841726344349" y1="0" y2="-71.02971207992826" stroke="#93dbe9" stroke-width="1.7911726163781165" stroke-linecap="round" class="ld ld-speed-dash" style="animation-delay: -6.909638218073702s;animation-duration:10s"></line>
        <line x1="-189.72865609803102" x2="-189.72865609803102" y1="0" y2="-85.64497078201366" stroke="#93dbe9" stroke-width="0.8752246603311892" stroke-linecap="round" class="ld ld-speed-dash" style="animation-delay: -9.38760541330518s;animation-duration:5s"></line>
        <line x1="-204.21112829441023" x2="-204.21112829441023" y1="0" y2="-71.85015275468454" stroke="#93dbe9" stroke-width="2.706201167442877" stroke-linecap="round" class="ld ld-speed-dash" style="animation-delay: -0.47347751619723605s;animation-duration:5s"></line>
        <line x1="-262.44230058281016" x2="-262.44230058281016" y1="0" y2="-45.4345071515169" stroke="#689cc5" stroke-width="2.021081951233566" stroke-linecap="round" class="ld ld-speed-dash" style="animation-delay: -5.6000044003073395s;animation-duration:10s"></line>
        <line x1="-170.46019710980255" x2="-170.46019710980255" y1="0" y2="-57.200676874974015" stroke="#689cc5" stroke-width="4.31361688077264" stroke-linecap="round" class="ld ld-speed-dash" style="animation-delay: -1.222258609511141s;animation-duration:10s"></line>
        <line x1="243.2675795352408" x2="243.2675795352408" y1="0" y2="-86.67442264288096" stroke="#93dbe9" stroke-width="1.0106483017591406" stroke-linecap="round" class="ld ld-speed-dash" style="animation-delay: -4.414296122863061s;animation-duration:5s"></line>
        <line x1="130.7716049706893" x2="130.7716049706893" y1="0" y2="-127.36055021211592" stroke="#689cc5" stroke-width="1.2981013221645754" stroke-linecap="round" class="ld ld-speed-dash" style="animation-delay: -6.248383069960342s;animation-duration:10s"></line>
        <line x1="253.94217119078314" x2="253.94217119078314" y1="0" y2="-103.3351858721132" stroke="#93dbe9" stroke-width="0.7265228888914199" stroke-linecap="round" class="ld ld-speed-dash" style="animation-delay: -2.734462643864129s;animation-duration:5s"></line>
        <line x1="-59.64023034935664" x2="-59.64023034935664" y1="0" y2="-90.2356415029372" stroke="#93dbe9" stroke-width="1.6608869466754799" stroke-linecap="round" class="ld ld-speed-dash" style="animation-delay: -4.489084823119635s;animation-duration:5s"></line>
        <line x1="-252.4712043488143" x2="-252.4712043488143" y1="0" y2="-68.33329742241364" stroke="#93dbe9" stroke-width="3.0227445335609895" stroke-linecap="round" class="ld ld-speed-dash" style="animation-delay: -4.834101443390798s;animation-duration:5s"></line>
        <line x1="29.958892243946522" x2="29.958892243946522" y1="0" y2="-97.93648788799682" stroke="#93dbe9" stroke-width="3.0931171528167916" stroke-linecap="round" class="ld ld-speed-dash" style="animation-delay: -8.062550073441386s;animation-duration:5s"></line>
        <line x1="-131.29936530547462" x2="-131.29936530547462" y1="0" y2="-63.45928798337186" stroke="#689cc5" stroke-width="0.2117629456420228" stroke-linecap="round" class="ld ld-speed-dash" style="animation-delay: -5.899786324405143s;animation-duration:5s"></line>
        <line x1="-133.15430692299415" x2="-133.15430692299415" y1="0" y2="-68.82095540441725" stroke="#689cc5" stroke-width="3.401339454953706" stroke-linecap="round" class="ld ld-speed-dash" style="animation-delay: -1.5483177768095915s;animation-duration:10s"></line>
        <line x1="-103.54103653232968" x2="-103.54103653232968" y1="0" y2="-92.03578022071119" stroke="#93dbe9" stroke-width="3.994460247368965" stroke-linecap="round" class="ld ld-speed-dash" style="animation-delay: -3.4125875318124623s;animation-duration:10s"></line>
        <line x1="-226.63966568963488" x2="-226.63966568963488" y1="0" y2="-52.64862419576036" stroke="#93dbe9" stroke-width="3.893123185393236" stroke-linecap="round" class="ld ld-speed-dash" style="animation-delay: -1.5882428184431s;animation-duration:5s"></line>
        <line x1="286.83191723516927" x2="286.83191723516927" y1="0" y2="-95.01103869798018" stroke="#689cc5" stroke-width="1.9896505219883602" stroke-linecap="round" class="ld ld-speed-dash" style="animation-delay: -2.648075427421519s;animation-duration:5s"></line>
        <line x1="-144.38182826305086" x2="-144.38182826305086" y1="0" y2="-43.89550941612687" stroke="#689cc5" stroke-width="1.3981866828506395" stroke-linecap="round" class="ld ld-speed-dash" style="animation-delay: -2.356525735477224s;animation-duration:10s"></line>
        <line x1="-308.40248102226184" x2="-308.40248102226184" y1="0" y2="-51.93604262034013" stroke="#93dbe9" stroke-width="2.267557139752859" stroke-linecap="round" class="ld ld-speed-dash" style="animation-delay: -1.405956402853781s;animation-duration:5s"></line>
        <line x1="11.093218099688684" x2="11.093218099688684" y1="0" y2="-108.26065956881286" stroke="#689cc5" stroke-width="0.6629609412058374" stroke-linecap="round" class="ld ld-speed-dash" style="animation-delay: -8.765901061649986s;animation-duration:5s"></line>
        <line x1="162.07531523889054" x2="162.07531523889054" y1="0" y2="-85.18320615634859" stroke="#93dbe9" stroke-width="1.6529739042165876" stroke-linecap="round" class="ld ld-speed-dash" style="animation-delay: -8.174216320625492s;animation-duration:10s"></line>
        <line x1="214.60129524976543" x2="214.60129524976543" y1="0" y2="-78.68196531352797" stroke="#689cc5" stroke-width="1.3018032985125705" stroke-linecap="round" class="ld ld-speed-dash" style="animation-delay: -4.043445829078684s;animation-duration:10s"></line>
        <line x1="166.60569534618233" x2="166.60569534618233" y1="0" y2="-112.95378939778598" stroke="#689cc5" stroke-width="2.376909551239013" stroke-linecap="round" class="ld ld-speed-dash" style="animation-delay: -6.6721865052534115s;animation-duration:10s"></line>
        <line x1="107.50320976350089" x2="107.50320976350089" y1="0" y2="-86.3515527524352" stroke="#93dbe9" stroke-width="1.4071878233875972" stroke-linecap="round" class="ld ld-speed-dash" style="animation-delay: -2.3617274582458725s;animation-duration:10s"></line>
        <line x1="203.60815932072427" x2="203.60815932072427" y1="0" y2="-67.10761564497345" stroke="#689cc5" stroke-width="1.4250043055248662" stroke-linecap="round" class="ld ld-speed-dash" style="animation-delay: -8.255143234332936s;animation-duration:5s"></line>
        <line x1="-125.48362082509485" x2="-125.48362082509485" y1="0" y2="-60.63980132554006" stroke="#93dbe9" stroke-width="2.851770288511612" stroke-linecap="round" class="ld ld-speed-dash" style="animation-delay: -8.490295605882025s;animation-duration:5s"></line>
        <line x1="-16.085787284744413" x2="-16.085787284744413" y1="0" y2="-41.49226877119096" stroke="#689cc5" stroke-width="4.404695126435271" stroke-linecap="round" class="ld ld-speed-dash" style="animation-delay: -8.14367331877962s;animation-duration:10s"></line>
        <line x1="-117.99064029930463" x2="-117.99064029930463" y1="0" y2="-60.39255589510675" stroke="#689cc5" stroke-width="2.234889371539421" stroke-linecap="round" class="ld ld-speed-dash" style="animation-delay: -1.629405531299041s;animation-duration:5s"></line>
        <line x1="220.13417189843494" x2="220.13417189843494" y1="0" y2="-64.34760788987917" stroke="#689cc5" stroke-width="0.8859296237796771" stroke-linecap="round" class="ld ld-speed-dash" style="animation-delay: -5.414727382607591s;animation-duration:10s"></line>
        <line x1="-43.05342546196101" x2="-43.05342546196101" y1="0" y2="-97.46453782580808" stroke="#689cc5" stroke-width="1.844093737295665" stroke-linecap="round" class="ld ld-speed-dash" style="animation-delay: -0.609781482825984s;animation-duration:10s"></line>
        <line x1="-201.9076597253155" x2="-201.9076597253155" y1="0" y2="-47.04399296737179" stroke="#689cc5" stroke-width="3.530887205121683" stroke-linecap="round" class="ld ld-speed-dash" style="animation-delay: -0.0033662462590022817s;animation-duration:10s"></line>
        <line x1="91.72542511773379" x2="91.72542511773379" y1="0" y2="-95.48099097443341" stroke="#689cc5" stroke-width="3.5029925121549543" stroke-linecap="round" class="ld ld-speed-dash" style="animation-delay: -1.0022117339171344s;animation-duration:10s"></line>
        <line x1="241.6652030707143" x2="241.6652030707143" y1="0" y2="-70.93855381095473" stroke="#93dbe9" stroke-width="0.40524465755483463" stroke-linecap="round" class="ld ld-speed-dash" style="animation-delay: -4.259375887414166s;animation-duration:5s"></line>
        <line x1="68.64022884397137" x2="68.64022884397137" y1="0" y2="-63.23671929530737" stroke="#93dbe9" stroke-width="4.603583688372233" stroke-linecap="round" class="ld ld-speed-dash" style="animation-delay: -6.996932176357584s;animation-duration:5s"></line>
        <line x1="-295.41956894714235" x2="-295.41956894714235" y1="0" y2="-113.52758086783723" stroke="#93dbe9" stroke-width="0.3503361727928439" stroke-linecap="round" class="ld ld-speed-dash" style="animation-delay: -8.93915286011465s;animation-duration:5s"></line>
        <line x1="-201.5143954931924" x2="-201.5143954931924" y1="0" y2="-52.359485769417915" stroke="#689cc5" stroke-width="2.7218521598742074" stroke-linecap="round" class="ld ld-speed-dash" style="animation-delay: -4.105218112949172s;animation-duration:5s"></line>
        <line x1="103.48773466628778" x2="103.48773466628778" y1="0" y2="-66.62690646424944" stroke="#93dbe9" stroke-width="0.4348916836014055" stroke-linecap="round" class="ld ld-speed-dash" style="animation-delay: -9.687236738346162s;animation-duration:5s"></line>
        <line x1="27.341288836396558" x2="27.341288836396558" y1="0" y2="-77.12796079441652" stroke="#689cc5" stroke-width="2.107516959717639" stroke-linecap="round" class="ld ld-speed-dash" style="animation-delay: -4.652348205541327s;animation-duration:10s"></line>
        <line x1="104.28717879263296" x2="104.28717879263296" y1="0" y2="-132.83873609794352" stroke="#689cc5" stroke-width="2.510087755539213" stroke-linecap="round" class="ld ld-speed-dash" style="animation-delay: -8.982401360734533s;animation-duration:5s"></line>
        <line x1="52.281698940049566" x2="52.281698940049566" y1="0" y2="-122.86135153865006" stroke="#93dbe9" stroke-width="1.0458523243452937" stroke-linecap="round" class="ld ld-speed-dash" style="animation-delay: -1.8803900120586239s;animation-duration:10s"></line>
        <line x1="-13.676917675247893" x2="-13.676917675247893" y1="0" y2="-130.96878806218518" stroke="#689cc5" stroke-width="1.9091900944023144" stroke-linecap="round" class="ld ld-speed-dash" style="animation-delay: -9.057636112869254s;animation-duration:10s"></line>
        <line x1="15.406214264833267" x2="15.406214264833267" y1="0" y2="-110.64566306613978" stroke="#93dbe9" stroke-width="2.029211877185591" stroke-linecap="round" class="ld ld-speed-dash" style="animation-delay: -2.6568842464456868s;animation-duration:10s"></line>
        <line x1="-133.54235763535831" x2="-133.54235763535831" y1="0" y2="-67.53578076615834" stroke="#93dbe9" stroke-width="1.8309424604960511" stroke-linecap="round" class="ld ld-speed-dash" style="animation-delay: -4.838647392603925s;animation-duration:5s"></line>
        <line x1="-208.00895967793963" x2="-208.00895967793963" y1="0" y2="-86.55527472343145" stroke="#689cc5" stroke-width="0.14193421190544175" stroke-linecap="round" class="ld ld-speed-dash" style="animation-delay: -8.901764844538484s;animation-duration:5s"></line>
        <line x1="-57.199647608863344" x2="-57.199647608863344" y1="0" y2="-111.7552019717331" stroke="#689cc5" stroke-width="1.3198187722728527" stroke-linecap="round" class="ld ld-speed-dash" style="animation-delay: -7.663499259427466s;animation-duration:10s"></line>
        <line x1="136.39632573859922" x2="136.39632573859922" y1="0" y2="-93.70609861521774" stroke="#689cc5" stroke-width="3.884738338144928" stroke-linecap="round" class="ld ld-speed-dash" style="animation-delay: -0.8441523348925607s;animation-duration:10s"></line>
        <line x1="193.11402161136078" x2="193.11402161136078" y1="0" y2="-45.033665579306934" stroke="#93dbe9" stroke-width="0.7475974430276661" stroke-linecap="round" class="ld ld-speed-dash" style="animation-delay: -4.759407231475192s;animation-duration:5s"></line>
        <line x1="57.671180974307674" x2="57.671180974307674" y1="0" y2="-91.90632992175281" stroke="#93dbe9" stroke-width="2.3494084256631442" stroke-linecap="round" class="ld ld-speed-dash" style="animation-delay: -3.9893311779703913s;animation-duration:10s"></line>
        <line x1="-119.6233855292936" x2="-119.6233855292936" y1="0" y2="-122.81653153150806" stroke="#689cc5" stroke-width="2.4174822569750907" stroke-linecap="round" class="ld ld-speed-dash" style="animation-delay: -5.329031544597598s;animation-duration:5s"></line>
        <line x1="-281.24271540750874" x2="-281.24271540750874" y1="0" y2="-92.54909203960008" stroke="#689cc5" stroke-width="3.814901202296829" stroke-linecap="round" class="ld ld-speed-dash" style="animation-delay: -2.6828618245991858s;animation-duration:10s"></line>
        <line x1="-264.07626532083236" x2="-264.07626532083236" y1="0" y2="-42.60189367313753" stroke="#93dbe9" stroke-width="4.825850807626949" stroke-linecap="round" class="ld ld-speed-dash" style="animation-delay: -4.726206412474229s;animation-duration:5s"></line>
        <line x1="294.2445412909025" x2="294.2445412909025" y1="0" y2="-95.48137364913501" stroke="#689cc5" stroke-width="3.8564980303600995" stroke-linecap="round" class="ld ld-speed-dash" style="animation-delay: -0.1973126181004992s;animation-duration:5s"></line>
        <line x1="80.57540158079078" x2="80.57540158079078" y1="0" y2="-61.542943413862986" stroke="#689cc5" stroke-width="3.1435694945555834" stroke-linecap="round" class="ld ld-speed-dash" style="animation-delay: -6.816594849867913s;animation-duration:10s"></line>
        <line x1="-46.0997198930955" x2="-46.0997198930955" y1="0" y2="-47.81634310558032" stroke="#93dbe9" stroke-width="3.5817179314562217" stroke-linecap="round" class="ld ld-speed-dash" style="animation-delay: -8.444775303333602s;animation-duration:5s"></line>
        <line x1="-148.2740991712938" x2="-148.2740991712938" y1="0" y2="-100.41925511393814" stroke="#93dbe9" stroke-width="4.8676242153922376" stroke-linecap="round" class="ld ld-speed-dash" style="animation-delay: -9.763283904887054s;animation-duration:5s"></line>
        <line x1="65.82578428269727" x2="65.82578428269727" y1="0" y2="-110.10072538502203" stroke="#689cc5" stroke-width="4.162892981528808" stroke-linecap="round" class="ld ld-speed-dash" style="animation-delay: -5.8290048946379995s;animation-duration:5s"></line>
        <line x1="155.53056439221615" x2="155.53056439221615" y1="0" y2="-71.36069198392478" stroke="#93dbe9" stroke-width="3.5079619545692204" stroke-linecap="round" class="ld ld-speed-dash" style="animation-delay: -9.789822863272207s;animation-duration:10s"></line>
        <line x1="-39.85970369323624" x2="-39.85970369323624" y1="0" y2="-94.22612538017776" stroke="#93dbe9" stroke-width="3.4341075334000415" stroke-linecap="round" class="ld ld-speed-dash" style="animation-delay: -9.357699646119933s;animation-duration:5s"></line>
        <line x1="25.817686994878315" x2="25.817686994878315" y1="0" y2="-93.51083434889259" stroke="#689cc5" stroke-width="0.7422155290949528" stroke-linecap="round" class="ld ld-speed-dash" style="animation-delay: -7.420669391039471s;animation-duration:10s"></line>
        <line x1="-85.45074604290889" x2="-85.45074604290889" y1="0" y2="-125.62497744763884" stroke="#93dbe9" stroke-width="3.0867947944432714" stroke-linecap="round" class="ld ld-speed-dash" style="animation-delay: -8.614685186249066s;animation-duration:10s"></line>
        <line x1="178.6281823393208" x2="178.6281823393208" y1="0" y2="-129.46991988171646" stroke="#689cc5" stroke-width="4.248115743423975" stroke-linecap="round" class="ld ld-speed-dash" style="animation-delay: -4.922388746404165s;animation-duration:5s"></line>
        <line x1="262.31051829839214" x2="262.31051829839214" y1="0" y2="-39.827218614585966" stroke="#93dbe9" stroke-width="0.6332227491931258" stroke-linecap="round" class="ld ld-speed-dash" style="animation-delay: -8.544492973009419s;animation-duration:5s"></line>
        <line x1="-160.87140007904685" x2="-160.87140007904685" y1="0" y2="-95.37666302426524" stroke="#93dbe9" stroke-width="1.8487698809031268" stroke-linecap="round" class="ld ld-speed-dash" style="animation-delay: -9.737242978562959s;animation-duration:10s"></line>
        <line x1="124.48411240122986" x2="124.48411240122986" y1="0" y2="-134.22231427901852" stroke="#689cc5" stroke-width="2.9222085412519934" stroke-linecap="round" class="ld ld-speed-dash" style="animation-delay: -8.425783562448427s;animation-duration:10s"></line>
        <line x1="35.31279927462428" x2="35.31279927462428" y1="0" y2="-100.74624842852168" stroke="#93dbe9" stroke-width="3.5979830239266186" stroke-linecap="round" class="ld ld-speed-dash" style="animation-delay: -6.533316911223859s;animation-duration:5s"></line>
        <line x1="129.212663097083" x2="129.212663097083" y1="0" y2="-63.17032008843108" stroke="#689cc5" stroke-width="1.4990086150492106" stroke-linecap="round" class="ld ld-speed-dash" style="animation-delay: -6.905447824741485s;animation-duration:5s"></line>
        <line x1="243.0951804536881" x2="243.0951804536881" y1="0" y2="-40.15073579806025" stroke="#93dbe9" stroke-width="1.1517651397211108" stroke-linecap="round" class="ld ld-speed-dash" style="animation-delay: -1.918035783403035s;animation-duration:10s"></line>
        <line x1="297.40804086267525" x2="297.40804086267525" y1="0" y2="-74.5679044320911" stroke="#93dbe9" stroke-width="4.750841489291292" stroke-linecap="round" class="ld ld-speed-dash" style="animation-delay: -2.518742026437192s;animation-duration:10s"></line>
        <line x1="-307.8171401621507" x2="-307.8171401621507" y1="0" y2="-65.27253010452382" stroke="#689cc5" stroke-width="1.4872163006994998" stroke-linecap="round" class="ld ld-speed-dash" style="animation-delay: -2.457469392926327s;animation-duration:5s"></line>
        <line x1="148.60675905552563" x2="148.60675905552563" y1="0" y2="-105.14994279742785" stroke="#689cc5" stroke-width="0.14536932257138813" stroke-linecap="round" class="ld ld-speed-dash" style="animation-delay: -9.864012748758428s;animation-duration:10s"></line>
        <line x1="77.29065337938344" x2="77.29065337938344" y1="0" y2="-87.68034768111374" stroke="#93dbe9" stroke-width="3.1080828121161854" stroke-linecap="round" class="ld ld-speed-dash" style="animation-delay: -7.542259494792395s;animation-duration:10s"></line>
        <line x1="124.81809121956097" x2="124.81809121956097" y1="0" y2="-59.724431197632384" stroke="#93dbe9" stroke-width="1.1626878542105568" stroke-linecap="round" class="ld ld-speed-dash" style="animation-delay: -5.921825165553634s;animation-duration:5s"></line>
        <line x1="-147.17331925826926" x2="-147.17331925826926" y1="0" y2="-87.98895548865391" stroke="#689cc5" stroke-width="3.724036785587763" stroke-linecap="round" class="ld ld-speed-dash" style="animation-delay: -8.547615361375524s;animation-duration:5s"></line>
        <line x1="120.02321014517378" x2="120.02321014517378" y1="0" y2="-122.42184328920503" stroke="#93dbe9" stroke-width="4.986096074910642" stroke-linecap="round" class="ld ld-speed-dash" style="animation-delay: -3.203674455929673s;animation-duration:5s"></line>
        <line x1="-85.35697959438565" x2="-85.35697959438565" y1="0" y2="-113.9255049239602" stroke="#689cc5" stroke-width="1.2580790021963812" stroke-linecap="round" class="ld ld-speed-dash" style="animation-delay: -0.7041819951813711s;animation-duration:10s"></line>
        <line x1="216.98444806859692" x2="216.98444806859692" y1="0" y2="-74.66490998650889" stroke="#689cc5" stroke-width="0.08145315040657408" stroke-linecap="round" class="ld ld-speed-dash" style="animation-delay: -0.07659910751931731s;animation-duration:5s"></line>
        <line x1="-88.5833244462382" x2="-88.5833244462382" y1="0" y2="-94.23191638889026" stroke="#93dbe9" stroke-width="0.36448938846648515" stroke-linecap="round" class="ld ld-speed-dash" style="animation-delay: -8.814459806667168s;animation-duration:10s"></line>
        <line x1="101.68148263609382" x2="101.68148263609382" y1="0" y2="-62.30822021036883" stroke="#689cc5" stroke-width="0.3441504762936093" stroke-linecap="round" class="ld ld-speed-dash" style="animation-delay: -1.298327210668756s;animation-duration:10s"></line>
        <line x1="-178.77528466317875" x2="-178.77528466317875" y1="0" y2="-99.02459644021373" stroke="#689cc5" stroke-width="3.13692411157792" stroke-linecap="round" class="ld ld-speed-dash" style="animation-delay: -5.920268981073545s;animation-duration:10s"></line>
        <line x1="-222.79049463727475" x2="-222.79049463727475" y1="0" y2="-94.08424908401098" stroke="#689cc5" stroke-width="2.581823116725239" stroke-linecap="round" class="ld ld-speed-dash" style="animation-delay: -9.465099032287313s;animation-duration:5s"></line>
        <line x1="-207.3425745262142" x2="-207.3425745262142" y1="0" y2="-45.6407993427861" stroke="#689cc5" stroke-width="3.3739465454954676" stroke-linecap="round" class="ld ld-speed-dash" style="animation-delay: -2.2891328043908246s;animation-duration:5s"></line>
        <line x1="142.92704319821453" x2="142.92704319821453" y1="0" y2="-108.89982315357477" stroke="#93dbe9" stroke-width="2.833872007920844" stroke-linecap="round" class="ld ld-speed-dash" style="animation-delay: -6.54688798732859s;animation-duration:5s"></line>
        <line x1="-66.74147305711621" x2="-66.74147305711621" y1="0" y2="-62.61654525110224" stroke="#689cc5" stroke-width="0.7986154703884757" stroke-linecap="round" class="ld ld-speed-dash" style="animation-delay: -0.5754795045284999s;animation-duration:10s"></line>
        <line x1="-260.1726854803525" x2="-260.1726854803525" y1="0" y2="-59.378762036066014" stroke="#93dbe9" stroke-width="4.303821499932358" stroke-linecap="round" class="ld ld-speed-dash" style="animation-delay: -8.143736037145386s;animation-duration:5s"></line>
      </g>
    </g>
  </g>
  <g transform="translate(0,640) scale(0.1,-0.1)" fill="#444" stroke="none">
    <path d="M1524 5638 c-13 -59 -6 -181 15 -258 11 -41 28 -100 36 -130 9 -30
            14 -68 13 -85 -3 -26 -11 -16 -59 80 -30 61 -79 170 -108 242 -29 73 -59 140
            -67 150 -12 16 -13 9 -14 -52 0 -71 15 -140 65 -298 25 -80 27 -124 4 -87 -5
            8 -53 87 -107 174 -53 88 -101 159 -107 158 -6 -1 -9 -28 -7 -65 4 -62 11 -82
            96 -275 49 -109 43 -127 -15 -55 -80 99 -170 193 -180 188 -10 -7 0 -155 11
            -170 4 -5 11 -24 14 -41 7 -32 7 -32 -31 -30 -21 2 -46 -1 -55 -6 -25 -12 -31
            -83 -13 -158 32 -133 34 -124 -27 -120 -70 4 -92 -99 -42 -199 17 -34 45 -67
            78 -93 28 -22 53 -44 54 -49 2 -5 -27 -8 -66 -7 -89 4 -112 -13 -112 -79 0
            -57 43 -147 77 -162 22 -10 24 -16 19 -43 -3 -17 -13 -45 -21 -61 -8 -17 -15
            -46 -15 -66 0 -37 39 -133 59 -145 17 -11 13 -56 -11 -104 -19 -41 -20 -50 -9
            -91 17 -63 35 -87 76 -102 21 -8 35 -20 35 -30 0 -19 -23 -81 -46 -122 -13
            -23 -13 -34 -4 -63 24 -73 150 -98 320 -65 114 23 140 25 140 14 0 -9 -57 -46
            -145 -93 -33 -18 -72 -40 -88 -48 -26 -16 -44 -47 -38 -67 2 -5 3 -31 2 -56
            -1 -89 66 -112 224 -74 l30 8 -32 -35 c-35 -36 -40 -57 -22 -90 6 -11 12 -31
            14 -44 5 -47 32 -64 102 -64 62 0 63 0 63 -28 0 -15 9 -35 20 -45 11 -9 20
            -26 20 -37 0 -37 95 -64 141 -40 16 9 21 7 29 -15 5 -14 16 -25 25 -25 8 0 15
            -9 15 -19 0 -43 56 -35 163 23 37 20 71 36 76 36 5 0 16 -12 26 -26 16 -25 16
            -28 -2 -53 -24 -31 -33 -67 -37 -141 -2 -39 -11 -70 -30 -103 -15 -25 -25 -51
            -22 -56 4 -5 -7 -24 -24 -41 -16 -17 -30 -26 -30 -20 0 12 -13 3 -58 -40 -15
            -13 -30 -24 -34 -22 -5 1 -8 -3 -8 -8 0 -6 -7 -10 -16 -10 -8 0 -13 -4 -10 -9
            3 -5 -2 -11 -12 -13 -9 -3 -73 -46 -142 -95 -139 -100 -276 -179 -282 -163 -2
            6 -129 -66 -283 -160 -154 -93 -288 -170 -299 -170 -28 0 -124 -76 -111 -88 9
            -9 93 23 124 48 20 16 54 38 76 50 22 12 99 59 170 106 120 77 217 134 230
            134 53 0 -269 -224 -456 -317 -25 -13 -77 -50 -115 -83 -38 -33 -72 -60 -75
            -60 -4 0 -10 -20 -13 -45 -6 -39 -3 -50 28 -100 25 -38 43 -55 58 -56 13 -1
            32 -3 43 -4 11 -1 30 -2 42 -3 19 -2 22 -6 17 -31 -9 -45 26 -96 79 -114 25
            -8 47 -23 54 -37 13 -26 48 -49 75 -50 9 0 33 -20 53 -43 28 -33 48 -47 86
            -57 27 -8 55 -20 61 -27 17 -21 125 -6 164 22 17 13 49 28 72 34 42 12 102 70
            102 101 0 16 23 49 201 290 254 345 290 397 299 431 9 34 64 120 81 127 5 2
            28 40 51 84 24 44 54 88 68 97 14 9 54 37 89 63 35 26 68 45 74 41 8 -5 7 -8
            -1 -11 -7 -2 -12 -10 -12 -18 0 -19 90 -10 163 16 29 10 72 25 97 34 25 9 53
            21 62 26 30 17 30 11 -2 -35 -40 -57 -73 -132 -65 -145 3 -6 15 -10 25 -10 12
            0 20 -8 22 -22 2 -14 12 -24 28 -28 23 -6 25 -10 22 -53 -4 -55 17 -97 49 -97
            11 0 22 -7 25 -15 9 -24 64 -18 106 11 21 15 41 24 44 21 3 -3 -2 -26 -10 -51
            -24 -71 -21 -111 10 -135 15 -12 36 -21 48 -21 12 0 27 -5 34 -12 7 -7 27 -11
            46 -10 32 2 34 1 39 -40 7 -53 47 -93 83 -84 13 4 32 1 43 -6 31 -19 78 8 113
            64 16 26 34 48 39 48 5 0 9 -42 9 -94 0 -78 3 -97 20 -119 26 -33 75 -45 99
            -23 10 9 32 16 49 16 35 0 41 15 17 46 -8 10 -15 24 -15 31 0 12 28 79 76 178
            l24 50 -6 -85 c-4 -47 -13 -103 -20 -125 -16 -46 -18 -75 -5 -75 5 0 11 7 15
            15 7 20 26 19 26 0 0 -35 33 -77 73 -96 55 -24 89 -24 105 1 7 11 22 20 35 20
            22 0 62 20 41 20 -7 0 -14 10 -18 23 -5 18 -8 20 -16 7 -8 -12 -10 -12 -9 5 0
            11 4 40 10 65 5 25 10 51 11 58 1 6 5 12 9 12 4 0 9 8 12 17 2 10 7 -9 12 -42
            13 -98 30 -130 84 -159 64 -33 153 -58 193 -54 28 3 33 7 36 33 4 28 -28 227
            -49 306 -12 50 -12 99 1 79 14 -22 3 105 -14 160 -32 101 -34 149 -10 187 16
            26 11 58 -17 115 -22 43 -23 52 -7 42 6 -4 26 -8 42 -9 17 -1 41 -5 54 -9 20
            -7 22 -5 17 17 -7 27 -23 27 152 -5 35 -6 86 -30 158 -74 59 -35 121 -72 138
            -81 l32 -16 -32 33 c-18 19 -33 40 -33 47 0 7 -12 15 -27 19 -67 14 -155 57
            -164 81 -6 16 -32 35 -76 56 -38 18 -86 45 -108 60 -22 15 -43 27 -47 27 -4 0
            -23 11 -43 24 -20 14 -50 27 -68 31 -53 10 -159 45 -202 66 -24 12 -41 16 -43
            9 -5 -15 -22 -12 -22 4 0 7 -17 25 -37 38 -54 36 -142 88 -149 88 -3 0 -18 9
            -33 19 -15 11 -74 46 -131 78 -128 71 -194 136 -193 189 1 19 -3 37 -8 40 -12
            7 -11 74 1 74 6 0 10 6 10 13 0 7 9 29 20 50 24 44 26 94 5 124 -14 20 -13 28
            7 93 15 48 26 69 35 66 7 -3 14 0 15 7 0 7 3 23 5 37 2 14 5 46 7 71 2 25 11
            60 21 79 l17 34 13 -30 c13 -29 13 -29 14 19 1 47 25 105 70 171 11 17 18 33
            15 38 -11 18 -36 5 -102 -52 -46 -39 -79 -60 -95 -60 -14 0 -29 -5 -32 -11 -4
            -6 -13 -8 -20 -5 -8 3 -19 -2 -26 -10 -8 -9 -21 -13 -35 -10 -14 4 -24 1 -28
            -10 -3 -8 -10 -13 -16 -9 -17 10 -87 -43 -140 -105 -57 -69 -195 -200 -210
            -200 -5 0 -10 -7 -10 -15 0 -19 -3 -19 -50 5 -22 11 -44 20 -50 20 -21 0 -113
            85 -150 140 -21 30 -94 130 -162 221 -74 100 -134 190 -148 225 -13 33 -29 64
            -36 69 -6 6 -15 27 -19 49 -3 21 -28 79 -54 130 -26 50 -59 119 -72 154 -13
            34 -28 62 -33 62 -4 0 -6 -9 -3 -20 7 -28 -7 -33 -41 -16 -20 10 -34 30 -46
            63 -39 108 -45 119 -45 95 l-1 -23 -35 28 c-20 15 -49 49 -65 74 -16 25 -42
            56 -56 70 -33 29 -30 25 77 -137 90 -134 119 -185 119 -205 0 -8 -5 -7 -16 2
            -15 12 -16 11 -9 -11 4 -14 11 -29 16 -35 5 -5 9 -19 9 -32 0 -18 -6 -23 -25
            -23 -20 0 -25 -5 -25 -25 0 -21 -5 -25 -28 -25 -15 0 -37 6 -48 14 -27 19
            -111 31 -127 18 -17 -14 -76 -19 -85 -7 -17 24 -57 36 -115 34 -34 -1 -80 4
            -103 10 -22 6 -61 9 -85 8 -24 -2 -58 3 -76 10 -46 19 -56 17 -43 -7 8 -15 8
            -20 -2 -20 -19 0 -33 13 -33 30 0 14 -124 63 -135 53 -9 -8 33 -33 55 -33 12
            0 30 -9 41 -21 l19 -21 -50 7 c-91 12 -115 23 -115 54 0 17 -11 38 -29 55 -51
            49 -52 102 -4 124 50 23 73 37 70 42 -21 38 -47 104 -56 140 -7 25 -14 52 -17
            61 -7 19 44 49 83 49 34 0 38 22 14 76 -27 61 -28 104 -2 104 11 0 31 14 44
            30 15 17 29 26 32 20 9 -15 66 -43 73 -36 3 3 0 18 -7 32 -17 39 -1 51 42 30
            19 -9 40 -16 47 -16 7 0 29 -14 49 -30 63 -53 131 -96 131 -83 0 4 -20 34 -45
            65 -24 31 -50 71 -58 90 -8 18 -25 44 -39 58 -55 57 -88 109 -88 139 0 17 4
            31 9 31 16 0 46 -45 61 -88 7 -23 17 -39 21 -36 5 3 9 -2 9 -11 0 -8 7 -18 15
            -21 8 -4 15 -13 15 -21 0 -8 5 -11 11 -8 5 4 15 -7 22 -24 7 -19 17 -29 24
            -27 7 3 13 1 13 -4 0 -13 197 -216 204 -209 3 3 -12 32 -34 64 -28 43 -36 61
            -27 67 8 5 36 -18 79 -65 41 -44 68 -66 68 -55 0 26 37 10 59 -26 21 -34 46
            -78 98 -171 19 -33 32 -51 29 -40 -21 84 -32 117 -62 186 -19 44 -44 114 -55
            157 -27 99 -36 313 -20 436 12 89 4 130 -17 90 -25 -48 -35 -169 -24 -290 6
            -65 14 -130 18 -144 5 -17 3 -22 -4 -15 -20 20 -82 237 -102 357 -11 68 -20
            164 -21 213 0 50 -4 110 -8 135 l-7 45 -19 -40 c-32 -71 -32 -231 2 -435 17
            -107 -71 108 -116 284 -16 61 -37 146 -46 189 -9 42 -20 77 -25 77 -5 0 -12
            -15 -16 -32z m-424 -1538 c0 -13 -11 -13 -30 0 -12 8 -11 10 8 10 12 0 22 -4
            22 -10z m96 -300 c8 0 14 -4 14 -8 0 -6 -32 -7 -105 -2 -5 0 -3 5 5 10 8 6 28
            8 44 5 16 -3 35 -5 42 -5z m514 -445 c0 -9 -59 -35 -80 -35 -24 0 -27 27 -2
            33 24 6 82 8 82 2z m2430 -1952 c0 -7 -4 -13 -10 -13 -5 0 -10 12 -10 28 0 21
            2 24 10 12 5 -8 10 -21 10 -27z" />
    <path d="M3615 3347 c-3 -7 -2 -24 3 -37 9 -24 9 -23 14 8 5 33 -8 55 -17 29z" />
    <path d="M3520 3085 c0 -19 5 -35 10 -35 6 0 10 16 10 35 0 19 -4 35 -10 35
            -5 0 -10 -16 -10 -35z" />
    <path d="M4989 1893 c30 -15 62 -40 70 -55 27 -45 72 -75 263 -173 101 -53
            188 -101 193 -109 12 -15 123 -54 273 -96 104 -29 186 -40 167 -21 -6 5 -91
            39 -190 74 -98 35 -181 69 -182 74 -7 19 43 20 148 1 57 -11 140 -21 184 -24
            71 -5 78 -3 62 9 -10 8 -44 18 -75 22 -53 6 -247 53 -319 76 -18 6 -33 15 -33
            21 0 6 44 7 130 3 158 -9 176 7 28 24 -204 24 -343 61 -229 61 77 0 50 18 -36
            25 -129 10 -271 39 -356 74 -42 16 -93 33 -114 36 -38 6 -37 6 16 -22z" />
    <path d="M5060 1751 c14 -12 32 -28 40 -34 26 -21 144 -94 226 -140 44 -24
            137 -76 209 -117 71 -40 154 -81 184 -91 63 -22 64 -22 56 -9 -7 12 -147 80
            -164 80 -7 0 -38 24 -69 54 -31 29 -68 56 -82 59 -14 4 -64 29 -110 58 -101
            61 -175 99 -192 99 -14 0 -42 14 -93 44 l-30 18 25 -21z" />
    <path d="M5110 1593 c8 -3 24 -13 35 -23 33 -29 153 -110 163 -110 11 0 42
            -33 42 -45 0 -4 -8 -2 -17 6 -10 8 -34 23 -53 33 -19 10 -45 28 -57 39 -29 26
            -37 17 -34 -39 2 -41 0 -46 -16 -39 -44 18 -53 18 -53 -3 0 -12 4 -23 9 -26
            16 -10 -55 -77 -93 -87 -31 -9 -42 -7 -70 11 -43 26 -79 15 -94 -29 -11 -30
            -12 -31 -112 -45 -15 -3 -35 5 -54 20 -16 14 -36 22 -44 19 -8 -3 -25 4 -38
            16 l-22 21 -17 -33 c-38 -75 -79 -89 -132 -46 -62 51 -92 42 -66 -20 15 -35
            29 -47 98 -82 57 -29 98 -43 142 -47 l61 -7 29 41 c36 52 44 55 84 31 70 -40
            106 -53 164 -57 51 -3 63 0 83 18 12 11 22 31 22 43 0 45 11 49 81 34 119 -27
            168 -31 175 -13 4 11 13 14 25 11 26 -9 35 18 15 47 -9 12 -16 29 -16 38 0 8
            -14 28 -32 43 -19 17 -25 26 -15 23 10 -3 46 -10 80 -16 34 -5 80 -19 101 -30
            49 -24 89 -32 141 -28 l40 3 -72 53 c-40 30 -73 60 -73 67 0 7 -17 19 -37 26
            -51 16 -143 73 -223 137 -17 14 -37 21 -47 18 -10 -3 -31 3 -48 14 -16 11 -39
            20 -50 19 -14 0 -16 -2 -5 -6z m280 -193 c0 -5 -7 -7 -15 -4 -8 4 -15 8 -15
            10 0 2 7 4 15 4 8 0 15 -4 15 -10z" />
    <path d="M4040 1219 c0 -5 5 -7 10 -4 6 3 10 8 10 11 0 2 -4 4 -10 4 -5 0 -10
            -5 -10 -11z" />
  </g>
</svg>
